<svg xmlns="http://www.w3.org/2000/svg" width="695.984" height="465.882" viewBox="0 0 695.984 465.882">
  <g id="_404_Illustration" data-name="404 Illustration" transform="translate(-122.021 -53.865)">
    <g id="character" transform="translate(365.362 53.865)">
      <g id="Group_9841" data-name="Group 9841">
        <g id="Group_9839" data-name="Group 9839" transform="translate(11.565)">
          <rect id="Rectangle_1092" data-name="Rectangle 1092" width="98.998" height="192.299" transform="matrix(0.112, -0.994, 0.994, 0.112, 0, 98.379)" fill="#fff"/>
          <g id="Group_9838" data-name="Group 9838" transform="translate(24.305 16.508)">
            <path id="Path_11971" data-name="Path 11971" d="M630.8,88.009a3.99,3.99,0,0,1-1.166,2.594,8.17,8.17,0,0,1-2.439,1.7q-1.255.645-2.583,1.382a15.954,15.954,0,0,0-2.473,1.692,9.1,9.1,0,0,0-1.9,2.17,6.076,6.076,0,0,0-.881,2.817,4.922,4.922,0,0,0,.478,2.583A14.633,14.633,0,0,0,621.3,105.3q.884,1.171,1.964,2.426a17.644,17.644,0,0,1,1.939,2.759,15.334,15.334,0,0,1,1.392,3.355,11.937,11.937,0,0,1-.629,7.964,24.348,24.348,0,0,1-2.216,4.091,29.169,29.169,0,0,1-3.141,3.921,27.914,27.914,0,0,1-3.733,3.308,18.009,18.009,0,0,1-4.022,2.247,8.9,8.9,0,0,1-3.938.678,6.2,6.2,0,0,1-3.582-1.407,3.9,3.9,0,0,1-1.346-3.519,5.684,5.684,0,0,1,.944-2.779,14.437,14.437,0,0,1,1.987-2.365,26.2,26.2,0,0,1,2.54-2.157q1.384-1.036,2.536-2.09a13.656,13.656,0,0,0,1.976-2.232,5.083,5.083,0,0,0,.93-2.578,7.145,7.145,0,0,0-1.071-4.069q-1.215-2.134-2.719-4.426a47.357,47.357,0,0,1-2.7-4.659,8.833,8.833,0,0,1-1.023-4.7,13.881,13.881,0,0,1,1.984-5.918,24.366,24.366,0,0,1,4.366-5.506,22.615,22.615,0,0,1,5.726-3.963,11.832,11.832,0,0,1,6.062-1.29,6.036,6.036,0,0,1,3.9,1.7A4.718,4.718,0,0,1,630.8,88.009Z" transform="translate(-603.97 -82.359)" fill="#ff1747"/>
            <path id="Path_11972" data-name="Path 11972" d="M660.969,148.712a10,10,0,0,1-5.8-2.243,15.719,15.719,0,0,1-3.923-4.919,21.983,21.983,0,0,1-2.134-6.427,27.637,27.637,0,0,1-.361-6.831,32.589,32.589,0,0,1,1.412-7.234,24.57,24.57,0,0,1,3.179-6.667,15.811,15.811,0,0,1,4.978-4.723,11.337,11.337,0,0,1,6.813-1.469,10.139,10.139,0,0,1,6.215,2.509,15.44,15.44,0,0,1,3.854,5.382,23.226,23.226,0,0,1,1.771,6.8,27.889,27.889,0,0,1-.041,6.834,38.4,38.4,0,0,1-1.633,7.051,23.424,23.424,0,0,1-3.116,6.269,14.812,14.812,0,0,1-4.748,4.338A11.079,11.079,0,0,1,660.969,148.712Zm2.916-30.081a2.183,2.183,0,0,0-1.846.935,9.46,9.46,0,0,0-1.461,2.505,20.819,20.819,0,0,0-1.007,3.175,19.489,19.489,0,0,0-.488,2.947,21.948,21.948,0,0,0,.041,3.489,20.941,20.941,0,0,0,.577,3.5,9.46,9.46,0,0,0,1.105,2.7,2.193,2.193,0,0,0,1.689,1.165,2.263,2.263,0,0,0,1.908-.863,7.967,7.967,0,0,0,1.423-2.441,18.5,18.5,0,0,0,.918-3.317A31.855,31.855,0,0,0,667.2,129a21.955,21.955,0,0,0-.025-3.253,20.613,20.613,0,0,0-.52-3.357,8.48,8.48,0,0,0-1.078-2.628A2.213,2.213,0,0,0,663.885,118.631Z" transform="translate(-622.777 -93.212)" fill="#ff1747"/>
            <path id="Path_11973" data-name="Path 11973" d="M726.673,127.2a3.988,3.988,0,0,1-1.587-.286q-.65-.282-1.3-.6-.58-.309-1.162-.589a2.933,2.933,0,0,0-1.322-.266,4.742,4.742,0,0,0-2.421.556,8.264,8.264,0,0,0-1.991,1.528,10.939,10.939,0,0,0-1.6,2.126,14.355,14.355,0,0,0-1.115,2.364,14.629,14.629,0,0,0-.482,2.411q-.222,1.627-.361,3.492-.212,1.929-.341,3.661a22,22,0,0,1-.337,2.723,21.344,21.344,0,0,1-.52,2.475,11.987,11.987,0,0,1-1.035,2.638,6.5,6.5,0,0,1-1.659,2.021,3.4,3.4,0,0,1-2.464.687,3.062,3.062,0,0,1-1.917-.813,5.362,5.362,0,0,1-1.268-1.871,11.888,11.888,0,0,1-.742-2.636,26.442,26.442,0,0,1-.343-3.042q-.08-1.615-.061-3.222t.093-3.043q.073-1.435.2-2.633t.178-1.93q.107-2.339.118-4.717t.184-4.712q.109-1.465.377-3.256a11.814,11.814,0,0,1,.985-3.311,6.821,6.821,0,0,1,1.963-2.5,4.631,4.631,0,0,1,3.313-.826,2.769,2.769,0,0,1,1.878.878,5.7,5.7,0,0,1,1.165,1.9,10.935,10.935,0,0,1,.6,2.324,14.919,14.919,0,0,1,.169,2.224,16.749,16.749,0,0,1,3.916-3.964,8.583,8.583,0,0,1,5.332-1.378,11.793,11.793,0,0,1,3.144.536,9.176,9.176,0,0,1,2.777,1.414,6.889,6.889,0,0,1,1.971,2.326,6.262,6.262,0,0,1,.666,3.2,3.65,3.65,0,0,1-1.51,3.172A5.545,5.545,0,0,1,726.673,127.2Z" transform="translate(-645.479 -95.502)" fill="#ff1747"/>
            <path id="Path_11974" data-name="Path 11974" d="M776.38,130.91a3.979,3.979,0,0,1-1.587-.286q-.65-.282-1.3-.6-.58-.31-1.163-.589a2.933,2.933,0,0,0-1.321-.266,4.739,4.739,0,0,0-2.421.557,8.252,8.252,0,0,0-1.991,1.527,10.988,10.988,0,0,0-1.6,2.126,14.394,14.394,0,0,0-1.115,2.363,14.625,14.625,0,0,0-.482,2.411q-.222,1.626-.361,3.492-.211,1.929-.341,3.661a22.028,22.028,0,0,1-.337,2.723,21.471,21.471,0,0,1-.52,2.475,12.006,12.006,0,0,1-1.035,2.638,6.5,6.5,0,0,1-1.659,2.021,3.4,3.4,0,0,1-2.464.688,3.065,3.065,0,0,1-1.917-.813,5.382,5.382,0,0,1-1.268-1.871,11.891,11.891,0,0,1-.742-2.636,26.32,26.32,0,0,1-.342-3.042q-.081-1.615-.061-3.222t.093-3.043q.072-1.436.2-2.633t.178-1.931q.107-2.338.118-4.717t.184-4.712q.11-1.466.377-3.256a11.829,11.829,0,0,1,.985-3.311,6.818,6.818,0,0,1,1.963-2.5,4.625,4.625,0,0,1,3.313-.825,2.769,2.769,0,0,1,1.878.878,5.7,5.7,0,0,1,1.165,1.9,10.92,10.92,0,0,1,.6,2.324,15.013,15.013,0,0,1,.169,2.225,16.736,16.736,0,0,1,3.915-3.964,8.579,8.579,0,0,1,5.332-1.378,11.794,11.794,0,0,1,3.144.536,9.15,9.15,0,0,1,2.777,1.414,6.893,6.893,0,0,1,1.971,2.325,6.266,6.266,0,0,1,.666,3.2,3.651,3.651,0,0,1-1.51,3.171A5.548,5.548,0,0,1,776.38,130.91Z" transform="translate(-666.389 -97.064)" fill="#ff1747"/>
            <path id="Path_11975" data-name="Path 11975" d="M813.786,178.083a15.462,15.462,0,0,1-3.6-.772,17.285,17.285,0,0,1-3.726-1.719A10.983,10.983,0,0,1,803.6,173.1a4.4,4.4,0,0,1-1-3.159,2.957,2.957,0,0,1,.433-1.308,3.817,3.817,0,0,1,.987-1.1,4.9,4.9,0,0,1,1.293-.708,3.37,3.37,0,0,1,1.422-.2,5.36,5.36,0,0,1,1.549.35q.748.291,1.524.684.841.4,1.655.726a5.809,5.809,0,0,0,1.747.4,4.163,4.163,0,0,0,2.984-.917,9.509,9.509,0,0,0,2.321-2.81,21,21,0,0,0,1.7-3.962q.7-2.194,1.164-4.371t.742-4.1q.276-1.922.433-3.118a24.646,24.646,0,0,1-5.039,5.087,8.572,8.572,0,0,1-5.774,1.48,8.922,8.922,0,0,1-4.354-1.4,10.566,10.566,0,0,1-3.024-3.041,15.843,15.843,0,0,1-1.9-4.131,25.113,25.113,0,0,1-.954-4.73,39.044,39.044,0,0,1-.215-4.742,33.4,33.4,0,0,1,.316-4.233q.176-1.461.653-3.805a29.756,29.756,0,0,1,1.312-4.561,11.682,11.682,0,0,1,2.153-3.694,3.449,3.449,0,0,1,3.24-1.2,2.7,2.7,0,0,1,1.984,1.254,8.472,8.472,0,0,1,1.109,2.664,18.465,18.465,0,0,1,.481,3.421q.1,1.852.029,3.656t-.213,3.3q-.146,1.5-.205,2.3-.084,1.134-.1,2.272a5.805,5.805,0,0,0,.315,2.068A3.225,3.225,0,0,0,813.49,143a4.4,4.4,0,0,0,2.327.71,4.179,4.179,0,0,0,2.831-.659,5.238,5.238,0,0,0,1.7-2.053,10.338,10.338,0,0,0,.842-2.752q.245-1.49.345-2.824.069-.932.169-2.266t.243-2.8a20.934,20.934,0,0,1,.483-2.879,11.184,11.184,0,0,1,.928-2.545,5.251,5.251,0,0,1,1.475-1.8,3.169,3.169,0,0,1,2.222-.571,3.781,3.781,0,0,1,2.769,1.514,10.9,10.9,0,0,1,1.779,3.552,26.586,26.586,0,0,1,.988,4.732q.31,2.571.39,5.091T833,142.08q-.056,2.107-.146,3.307-.209,2.8-.676,6.351t-1.314,7.276a49.8,49.8,0,0,1-2.253,7.272,26.914,26.914,0,0,1-3.452,6.278,15.143,15.143,0,0,1-4.843,4.263A11.524,11.524,0,0,1,813.786,178.083Z" transform="translate(-686.974 -98.404)" fill="#ff1747"/>
          </g>
        </g>
        <g id="Group_9840" data-name="Group 9840" transform="translate(0 75.3)">
          <path id="Path_11976" data-name="Path 11976" d="M752.159,212.1c1.879-5.3,2.036-14.775-8.725-18.365s-19.606,10.609-8.819,19.255C739.2,216.663,746.377,214,746.377,214c7.391,36.675,2.717,154.24-5.223,169.058-4.374,8.163-7.448,10.759-9.514,11.124V319.545c0-45.374-24.062-81.812-79.4-81.812S572.83,274.17,572.83,319.545V382.3l-.006-.012s-3.261,9.828-13.106-8.545c-7.94-14.818-12.613-132.383-5.223-169.059,0,0,7.176,2.663,11.763-1.014,10.788-8.646,1.943-22.846-8.819-19.255s-10.6,13.062-8.725,18.365c.461,1.3-19.6,135.712,7.76,185.122,8.157,14.73,13.23,20.559,16.356,21.648v4.528c0,35.965,20.732,65.608,58.941,73.321l-5.554,58.328s-9.811-3.755-15.471,1.981,8.855,11.135,18.659,8.757,4.91-7.541,5-8.848c.074-1.061-1.084-37.971.2-59.691a105.325,105.325,0,0,0,17.63,1.432,99.64,99.64,0,0,0,26.006-3.262c2.347,21.028,2.5,61.59,2.622,62.7.138,1.3-4.57,6.636,5.312,8.666s24.2-3.88,18.338-9.412-15.531-1.432-15.531-1.432l-8.034-61.3c32.2-9.858,49.889-36.717,50.663-69.015,3.059-3.076,7.2-8.987,12.786-19.077C771.757,347.809,751.7,213.4,752.159,212.1Zm-68.3,201.977c0,19.594-11,33-31.624,33s-31.624-13.405-31.624-33V317.138c0-22,8.937-37.467,31.624-37.467s31.624,15.468,31.624,37.467Z" transform="translate(-542.053 -183.84)" fill="#ff1747"/>
          <ellipse id="Ellipse_344" data-name="Ellipse 344" cx="13.983" cy="25.345" rx="13.983" ry="25.345" transform="translate(40.438 161.447)" fill="#fff"/>
          <ellipse id="Ellipse_345" data-name="Ellipse 345" cx="14.857" cy="25.345" rx="14.857" ry="25.345" transform="translate(150.994 161.447)" fill="#fff"/>
          <path id="Path_11977" data-name="Path 11977" d="M638.9,509.6a7.866,7.866,0,1,1-7.865-7.866A7.865,7.865,0,0,1,638.9,509.6Z" transform="translate(-576.175 -317.567)"/>
          <path id="Path_11978" data-name="Path 11978" d="M829.73,505.076a7.866,7.866,0,1,1-7.866-7.866A7.866,7.866,0,0,1,829.73,505.076Z" transform="translate(-656.451 -315.663)"/>
        </g>
        <path id="Path_11979" data-name="Path 11979" d="M763.432,808.026c0,11.262-43.037,20.39-96.126,20.39s-96.125-9.129-96.125-20.39,43.037-20.39,96.125-20.39S763.432,796.765,763.432,808.026Z" transform="translate(-554.306 -362.535)" fill="#ff1747" opacity="0.3"/>
      </g>
    </g>
    <g id="text" transform="translate(122.021 168.889)">
      <path id="Path_11980" data-name="Path 11980" d="M292.7,517.784c0,14.323-11.936,25.066-27.453,25.066S237.8,532.107,237.8,517.784V485.161H150.27c-16.71,0-28.249-12.732-28.249-27.055,0-1.591,1.591-8.754,3.978-13.926l76.39-176.255c3.979-9.549,14.324-15.516,24.668-15.516,13.528,0,27.454,11.936,27.454,25.862a19.469,19.469,0,0,1-1.592,8.752c-23.076,53.315-41.776,95.089-64.853,148.4H237.8V374.553c0-14.323,11.936-25.064,27.452-25.064,14.722,0,27.453,10.741,27.453,25.064v60.873h5.171c15.12,0,26.658,11.539,26.658,24.667,0,13.927-11.538,25.067-26.658,25.067H292.7Z" transform="translate(-122.021 -252.41)" fill="#ff1747"/>
      <path id="Path_11981" data-name="Path 11981" d="M1144.49,522.308c0,14.323-11.936,25.067-27.454,25.067s-27.451-10.743-27.451-25.067V489.686h-87.53c-16.71,0-28.248-12.732-28.248-27.055,0-1.591,1.591-8.754,3.978-13.926l76.389-176.254c3.978-9.549,14.324-15.516,24.668-15.516,13.528,0,27.454,11.935,27.454,25.862a19.476,19.476,0,0,1-1.591,8.752c-23.077,53.315-41.776,95.09-64.853,148.4h49.734V379.078c0-14.324,11.935-25.065,27.451-25.065,14.721,0,27.454,10.741,27.454,25.065v60.873h5.172c15.118,0,26.658,11.539,26.658,24.666,0,13.927-11.539,25.067-26.658,25.067h-5.172Z" transform="translate(-480.335 -254.313)" fill="#ff1747"/>
    </g>
  </g>
</svg>
